<mxfile host="app.diagrams.net" modified="2022-11-25T16:22:24.839Z" agent="5.0 (Windows NT 10.0; Win64; x64) AppleWebKit/537.36 (KHTML, like Gecko) Chrome/107.0.0.0 Safari/537.36" etag="Lf_notS6-R8b3zH0rmWs" version="20.6.0" type="github">
  <diagram id="C5RBs43oDa-KdzZeNtuy" name="Page-1">
    <mxGraphModel dx="1040" dy="1750" grid="1" gridSize="10" guides="1" tooltips="1" connect="1" arrows="1" fold="1" page="1" pageScale="1" pageWidth="827" pageHeight="1169" math="0" shadow="0">
      <root>
        <mxCell id="WIyWlLk6GJQsqaUBKTNV-0" />
        <mxCell id="WIyWlLk6GJQsqaUBKTNV-1" parent="WIyWlLk6GJQsqaUBKTNV-0" />
        <mxCell id="MDOR29I8IeXnDNKICrHe-99" value="" style="strokeWidth=2;html=1;shape=mxgraph.flowchart.annotation_2;align=left;labelPosition=right;pointerEvents=1;labelBackgroundColor=#FFF4C3;fontSize=24;fontColor=#FFD966;gradientColor=#FFFFFF;direction=south;" vertex="1" parent="WIyWlLk6GJQsqaUBKTNV-1">
          <mxGeometry x="200" y="30" width="400" height="50" as="geometry" />
        </mxCell>
        <mxCell id="MDOR29I8IeXnDNKICrHe-117" value="" style="edgeStyle=orthogonalEdgeStyle;rounded=0;orthogonalLoop=1;jettySize=auto;html=1;strokeColor=#FFD966;fontSize=18;fontColor=#FFD966;startArrow=none;" edge="1" parent="WIyWlLk6GJQsqaUBKTNV-1" target="MDOR29I8IeXnDNKICrHe-116">
          <mxGeometry relative="1" as="geometry">
            <mxPoint x="600" y="190" as="sourcePoint" />
          </mxGeometry>
        </mxCell>
        <mxCell id="MDOR29I8IeXnDNKICrHe-102" value="&lt;font style=&quot;font-size: 18px;&quot;&gt;境外势力，反华份子&lt;/font&gt;" style="rounded=1;whiteSpace=wrap;html=1;labelBackgroundColor=none;fontSize=24;fontColor=#FFD966;gradientColor=#FFFFFF;" vertex="1" parent="WIyWlLk6GJQsqaUBKTNV-1">
          <mxGeometry x="540" y="80" width="120" height="60" as="geometry" />
        </mxCell>
        <mxCell id="MDOR29I8IeXnDNKICrHe-105" value="央视，共青团，观网" style="rounded=1;whiteSpace=wrap;html=1;shadow=0;glass=0;labelBackgroundColor=none;sketch=0;fillStyle=auto;fontSize=18;fontColor=#FFD966;fillColor=default;gradientColor=#FFFFFF;" vertex="1" parent="WIyWlLk6GJQsqaUBKTNV-1">
          <mxGeometry x="140" y="80" width="120" height="60" as="geometry" />
        </mxCell>
        <mxCell id="MDOR29I8IeXnDNKICrHe-107" value="谁发的" style="rounded=0;whiteSpace=wrap;html=1;shadow=0;glass=0;labelBackgroundColor=none;sketch=0;fillStyle=auto;fontSize=18;fontColor=#FFD966;fillColor=default;gradientColor=#FFFFFF;" vertex="1" parent="WIyWlLk6GJQsqaUBKTNV-1">
          <mxGeometry x="340" y="-30" width="120" height="60" as="geometry" />
        </mxCell>
        <mxCell id="MDOR29I8IeXnDNKICrHe-119" value="" style="edgeStyle=orthogonalEdgeStyle;rounded=0;orthogonalLoop=1;jettySize=auto;html=1;strokeColor=#FFD966;fontSize=18;fontColor=#FFD966;" edge="1" parent="WIyWlLk6GJQsqaUBKTNV-1" source="MDOR29I8IeXnDNKICrHe-116">
          <mxGeometry relative="1" as="geometry">
            <mxPoint x="600" y="350" as="targetPoint" />
            <Array as="points">
              <mxPoint x="600" y="310" />
              <mxPoint x="600" y="310" />
            </Array>
          </mxGeometry>
        </mxCell>
        <mxCell id="MDOR29I8IeXnDNKICrHe-116" value="&lt;font style=&quot;font-size: 18px;&quot;&gt;假的，都是假的&lt;/font&gt;" style="whiteSpace=wrap;html=1;fontSize=24;fontColor=#FFD966;rounded=1;labelBackgroundColor=none;gradientColor=#FFFFFF;" vertex="1" parent="WIyWlLk6GJQsqaUBKTNV-1">
          <mxGeometry x="540" y="220" width="120" height="60" as="geometry" />
        </mxCell>
        <mxCell id="MDOR29I8IeXnDNKICrHe-123" value="" style="edgeStyle=orthogonalEdgeStyle;rounded=0;orthogonalLoop=1;jettySize=auto;html=1;strokeColor=#FFD966;fontSize=18;fontColor=#FFD966;endArrow=none;" edge="1" parent="WIyWlLk6GJQsqaUBKTNV-1" source="MDOR29I8IeXnDNKICrHe-102">
          <mxGeometry relative="1" as="geometry">
            <mxPoint x="600" y="140" as="sourcePoint" />
            <mxPoint x="600" y="190" as="targetPoint" />
          </mxGeometry>
        </mxCell>
        <mxCell id="MDOR29I8IeXnDNKICrHe-125" style="edgeStyle=orthogonalEdgeStyle;rounded=0;orthogonalLoop=1;jettySize=auto;html=1;exitX=0.5;exitY=1;exitDx=0;exitDy=0;strokeColor=#FFD966;fontSize=18;fontColor=#FFD966;" edge="1" parent="WIyWlLk6GJQsqaUBKTNV-1">
          <mxGeometry relative="1" as="geometry">
            <mxPoint x="600" y="340" as="sourcePoint" />
            <mxPoint x="600" y="340" as="targetPoint" />
          </mxGeometry>
        </mxCell>
        <mxCell id="MDOR29I8IeXnDNKICrHe-129" value="有一部分证据" style="text;html=1;strokeColor=none;fillColor=none;align=center;verticalAlign=middle;whiteSpace=wrap;rounded=0;shadow=0;glass=0;labelBackgroundColor=none;sketch=0;fillStyle=auto;fontSize=18;fontColor=#FFD966;" vertex="1" parent="WIyWlLk6GJQsqaUBKTNV-1">
          <mxGeometry x="615" y="300" width="60" height="30" as="geometry" />
        </mxCell>
        <mxCell id="MDOR29I8IeXnDNKICrHe-139" value="" style="edgeStyle=orthogonalEdgeStyle;rounded=0;orthogonalLoop=1;jettySize=auto;html=1;strokeColor=#FFD966;fontSize=14;fontColor=#FFD966;exitX=0;exitY=0.5;exitDx=0;exitDy=0;" edge="1" parent="WIyWlLk6GJQsqaUBKTNV-1" source="MDOR29I8IeXnDNKICrHe-172" target="MDOR29I8IeXnDNKICrHe-138">
          <mxGeometry relative="1" as="geometry">
            <mxPoint x="540" y="405" as="sourcePoint" />
          </mxGeometry>
        </mxCell>
        <mxCell id="MDOR29I8IeXnDNKICrHe-141" value="" style="edgeStyle=orthogonalEdgeStyle;rounded=0;orthogonalLoop=1;jettySize=auto;html=1;strokeColor=#FFD966;fontSize=14;fontColor=#FFD966;" edge="1" parent="WIyWlLk6GJQsqaUBKTNV-1" target="MDOR29I8IeXnDNKICrHe-140">
          <mxGeometry relative="1" as="geometry">
            <mxPoint x="660" y="405" as="sourcePoint" />
            <Array as="points">
              <mxPoint x="660" y="380" />
              <mxPoint x="730" y="380" />
            </Array>
          </mxGeometry>
        </mxCell>
        <mxCell id="MDOR29I8IeXnDNKICrHe-134" value="敌在宣传部" style="whiteSpace=wrap;html=1;fontSize=18;fontColor=#FFD966;rounded=1;shadow=0;glass=0;labelBackgroundColor=none;sketch=0;fillStyle=auto;gradientColor=#FFFFFF;" vertex="1" parent="WIyWlLk6GJQsqaUBKTNV-1">
          <mxGeometry x="20" y="300" width="120" height="60" as="geometry" />
        </mxCell>
        <mxCell id="MDOR29I8IeXnDNKICrHe-136" value="证明我们媒体公正透明" style="whiteSpace=wrap;html=1;fontSize=18;fontColor=#FFD966;rounded=1;shadow=0;glass=0;labelBackgroundColor=none;sketch=0;fillStyle=auto;gradientColor=#FFFFFF;" vertex="1" parent="WIyWlLk6GJQsqaUBKTNV-1">
          <mxGeometry x="290" y="300" width="120" height="60" as="geometry" />
        </mxCell>
        <mxCell id="MDOR29I8IeXnDNKICrHe-138" value="假的，都是假的" style="whiteSpace=wrap;html=1;fontSize=18;fontColor=#FFD966;rounded=1;shadow=0;glass=0;labelBackgroundColor=none;sketch=0;fillStyle=auto;gradientColor=#FFFFFF;" vertex="1" parent="WIyWlLk6GJQsqaUBKTNV-1">
          <mxGeometry x="414" y="470" width="120" height="60" as="geometry" />
        </mxCell>
        <mxCell id="MDOR29I8IeXnDNKICrHe-145" value="" style="edgeStyle=orthogonalEdgeStyle;rounded=0;orthogonalLoop=1;jettySize=auto;html=1;strokeColor=#FFD966;fontSize=18;fontColor=#FFD966;" edge="1" parent="WIyWlLk6GJQsqaUBKTNV-1" source="MDOR29I8IeXnDNKICrHe-140" target="MDOR29I8IeXnDNKICrHe-144">
          <mxGeometry relative="1" as="geometry" />
        </mxCell>
        <mxCell id="MDOR29I8IeXnDNKICrHe-140" value="肯定是p的" style="whiteSpace=wrap;html=1;fontSize=18;fontColor=#FFD966;rounded=1;shadow=0;glass=0;labelBackgroundColor=none;sketch=0;fillStyle=auto;gradientColor=#FFFFFF;" vertex="1" parent="WIyWlLk6GJQsqaUBKTNV-1">
          <mxGeometry x="670" y="470" width="120" height="60" as="geometry" />
        </mxCell>
        <mxCell id="MDOR29I8IeXnDNKICrHe-142" value="&lt;font style=&quot;font-size: 18px;&quot;&gt;有&lt;/font&gt;" style="text;html=1;strokeColor=none;fillColor=none;align=center;verticalAlign=middle;whiteSpace=wrap;rounded=0;shadow=0;glass=0;labelBackgroundColor=none;sketch=0;fillStyle=auto;fontSize=14;fontColor=#FFD966;" vertex="1" parent="WIyWlLk6GJQsqaUBKTNV-1">
          <mxGeometry x="670" y="350" width="60" height="30" as="geometry" />
        </mxCell>
        <mxCell id="MDOR29I8IeXnDNKICrHe-143" value="没有" style="text;html=1;strokeColor=none;fillColor=none;align=center;verticalAlign=middle;whiteSpace=wrap;rounded=0;shadow=0;glass=0;labelBackgroundColor=none;sketch=0;fillStyle=auto;fontSize=18;fontColor=#FFD966;" vertex="1" parent="WIyWlLk6GJQsqaUBKTNV-1">
          <mxGeometry x="474" y="350" width="60" height="30" as="geometry" />
        </mxCell>
        <mxCell id="MDOR29I8IeXnDNKICrHe-147" value="" style="edgeStyle=orthogonalEdgeStyle;rounded=0;orthogonalLoop=1;jettySize=auto;html=1;strokeColor=#FFD966;fontSize=12;fontColor=#FFD966;" edge="1" parent="WIyWlLk6GJQsqaUBKTNV-1" source="MDOR29I8IeXnDNKICrHe-144" target="MDOR29I8IeXnDNKICrHe-146">
          <mxGeometry relative="1" as="geometry" />
        </mxCell>
        <mxCell id="MDOR29I8IeXnDNKICrHe-155" value="" style="edgeStyle=orthogonalEdgeStyle;rounded=0;orthogonalLoop=1;jettySize=auto;html=1;strokeColor=#FFD966;fontSize=12;fontColor=#FFD966;" edge="1" parent="WIyWlLk6GJQsqaUBKTNV-1" source="MDOR29I8IeXnDNKICrHe-144" target="MDOR29I8IeXnDNKICrHe-154">
          <mxGeometry relative="1" as="geometry">
            <Array as="points">
              <mxPoint x="530" y="708" />
              <mxPoint x="530" y="708" />
            </Array>
          </mxGeometry>
        </mxCell>
        <mxCell id="MDOR29I8IeXnDNKICrHe-144" value="1.这是中国内政，你们无权干涉 2.哪国没有恶性事件，不喜欢中国可以滚3.能不能不天天盯着中国的阴暗面4.&lt;br&gt;" style="whiteSpace=wrap;html=1;fontSize=18;fontColor=#FFD966;rounded=1;shadow=0;glass=0;labelBackgroundColor=none;sketch=0;fillStyle=auto;gradientColor=#FFFFFF;" vertex="1" parent="WIyWlLk6GJQsqaUBKTNV-1">
          <mxGeometry x="615" y="632.5" width="230" height="150" as="geometry" />
        </mxCell>
        <mxCell id="MDOR29I8IeXnDNKICrHe-146" value="我也骂过，证明中国有言论自由" style="whiteSpace=wrap;html=1;fontSize=18;fontColor=#FFD966;rounded=1;shadow=0;glass=0;labelBackgroundColor=none;sketch=0;fillStyle=auto;gradientColor=#FFFFFF;" vertex="1" parent="WIyWlLk6GJQsqaUBKTNV-1">
          <mxGeometry x="670" y="880" width="120" height="70" as="geometry" />
        </mxCell>
        <mxCell id="MDOR29I8IeXnDNKICrHe-157" value="" style="edgeStyle=orthogonalEdgeStyle;rounded=0;orthogonalLoop=1;jettySize=auto;html=1;strokeColor=#FFD966;fontSize=12;fontColor=#FFD966;" edge="1" parent="WIyWlLk6GJQsqaUBKTNV-1" source="MDOR29I8IeXnDNKICrHe-154" target="MDOR29I8IeXnDNKICrHe-156">
          <mxGeometry relative="1" as="geometry" />
        </mxCell>
        <mxCell id="MDOR29I8IeXnDNKICrHe-154" value="我看了微博与知乎，根本没有这回事，还说不是造谣" style="whiteSpace=wrap;html=1;fontSize=18;fontColor=#FFD966;rounded=1;shadow=0;glass=0;labelBackgroundColor=none;sketch=0;fillStyle=auto;gradientColor=#FFFFFF;" vertex="1" parent="WIyWlLk6GJQsqaUBKTNV-1">
          <mxGeometry x="160" y="670" width="160" height="75" as="geometry" />
        </mxCell>
        <mxCell id="MDOR29I8IeXnDNKICrHe-156" value="微博知乎被资本控制了" style="whiteSpace=wrap;html=1;fontSize=18;fontColor=#FFD966;rounded=1;shadow=0;glass=0;labelBackgroundColor=none;sketch=0;fillStyle=auto;gradientColor=#FFFFFF;" vertex="1" parent="WIyWlLk6GJQsqaUBKTNV-1">
          <mxGeometry x="180" y="505" width="120" height="60" as="geometry" />
        </mxCell>
        <mxCell id="MDOR29I8IeXnDNKICrHe-164" value="" style="endArrow=classic;html=1;rounded=0;strokeColor=#FFD966;fontSize=12;fontColor=#FFD966;" edge="1" parent="WIyWlLk6GJQsqaUBKTNV-1">
          <mxGeometry width="50" height="50" relative="1" as="geometry">
            <mxPoint x="199.5" y="140" as="sourcePoint" />
            <mxPoint x="199.5" y="220" as="targetPoint" />
          </mxGeometry>
        </mxCell>
        <mxCell id="MDOR29I8IeXnDNKICrHe-165" value="" style="endArrow=classic;html=1;rounded=0;strokeColor=#FFD966;fontSize=12;fontColor=#FFD966;edgeStyle=orthogonalEdgeStyle;entryX=0.5;entryY=0;entryDx=0;entryDy=0;" edge="1" parent="WIyWlLk6GJQsqaUBKTNV-1" target="MDOR29I8IeXnDNKICrHe-134">
          <mxGeometry width="50" height="50" relative="1" as="geometry">
            <mxPoint x="200" y="220" as="sourcePoint" />
            <mxPoint x="110" y="220" as="targetPoint" />
          </mxGeometry>
        </mxCell>
        <mxCell id="MDOR29I8IeXnDNKICrHe-168" value="" style="endArrow=classic;html=1;rounded=0;strokeColor=#FFD966;fontSize=12;fontColor=#FFD966;edgeStyle=orthogonalEdgeStyle;entryX=0.45;entryY=-0.02;entryDx=0;entryDy=0;entryPerimeter=0;" edge="1" parent="WIyWlLk6GJQsqaUBKTNV-1" target="MDOR29I8IeXnDNKICrHe-136">
          <mxGeometry width="50" height="50" relative="1" as="geometry">
            <mxPoint x="200" y="220" as="sourcePoint" />
            <mxPoint x="360" y="220" as="targetPoint" />
          </mxGeometry>
        </mxCell>
        <mxCell id="MDOR29I8IeXnDNKICrHe-169" value="&lt;font style=&quot;font-size: 18px;&quot;&gt;墙没有删干净&lt;/font&gt;" style="text;html=1;strokeColor=none;fillColor=none;align=center;verticalAlign=middle;whiteSpace=wrap;rounded=0;shadow=0;glass=0;labelBackgroundColor=none;sketch=0;fillStyle=auto;fontSize=12;fontColor=#FFD966;" vertex="1" parent="WIyWlLk6GJQsqaUBKTNV-1">
          <mxGeometry x="750" y="810" width="60" height="30" as="geometry" />
        </mxCell>
        <mxCell id="MDOR29I8IeXnDNKICrHe-172" value="视频呢，图片呢" style="rounded=1;whiteSpace=wrap;html=1;shadow=0;glass=0;labelBackgroundColor=none;sketch=0;fillStyle=auto;fontSize=18;fontColor=#FFD966;fillColor=default;gradientColor=#FFFFFF;" vertex="1" parent="WIyWlLk6GJQsqaUBKTNV-1">
          <mxGeometry x="540" y="350" width="120" height="60" as="geometry" />
        </mxCell>
        <mxCell id="MDOR29I8IeXnDNKICrHe-174" value="等墙内都删完贴" style="text;html=1;strokeColor=none;fillColor=none;align=center;verticalAlign=middle;whiteSpace=wrap;rounded=0;shadow=0;glass=0;labelBackgroundColor=none;sketch=0;fillStyle=auto;fontSize=18;fontColor=#FFD966;" vertex="1" parent="WIyWlLk6GJQsqaUBKTNV-1">
          <mxGeometry x="420" y="640" width="60" height="30" as="geometry" />
        </mxCell>
        <mxCell id="MDOR29I8IeXnDNKICrHe-175" value="被指出有删帖" style="text;html=1;strokeColor=none;fillColor=none;align=center;verticalAlign=middle;whiteSpace=wrap;rounded=0;shadow=0;glass=0;labelBackgroundColor=none;sketch=0;fillStyle=auto;fontSize=18;fontColor=#FFD966;" vertex="1" parent="WIyWlLk6GJQsqaUBKTNV-1">
          <mxGeometry x="270" y="610" width="60" height="30" as="geometry" />
        </mxCell>
        <mxCell id="MDOR29I8IeXnDNKICrHe-176" value="有实锤不是p的" style="text;html=1;strokeColor=none;fillColor=none;align=center;verticalAlign=middle;whiteSpace=wrap;rounded=0;shadow=0;glass=0;labelBackgroundColor=none;sketch=0;fillStyle=auto;fontSize=18;fontColor=#FFD966;" vertex="1" parent="WIyWlLk6GJQsqaUBKTNV-1">
          <mxGeometry x="767" y="570" width="60" height="30" as="geometry" />
        </mxCell>
      </root>
    </mxGraphModel>
  </diagram>
</mxfile>
